<svg xmlns="http://www.w3.org/2000/svg" viewBox="0 0 1000 1000">
  <path fill="#fff" d="M4 4h992v992H4z"/>
  <path fill="#008a19" d="M992 8v984H8V8zm8-8H0v1000h1000z"/>
  <!-- raw signals funneling into the unit interval -->
  <g stroke="#000" stroke-width="12" fill="none" stroke-linecap="round">
    <path d="M110 200 L 400 420"/>
    <path d="M110 400 L 400 470"/>
    <path d="M110 600 L 400 530"/>
    <path d="M110 800 L 400 580"/>
  </g>
  <g fill="#000">
    <path d="M400 420 l-60 -8 30 52z"/>
    <path d="M400 470 l-58 -22 18 56z"/>
    <path d="M400 530 l-40 -44 -18 56z"/>
    <path d="M400 580 l-30 -52 -30 44z"/>
  </g>
  <!-- normalised output bar 0..1 -->
  <rect x="470" y="380" width="420" height="240" rx="24" fill="#adaddb" stroke="#000" stroke-width="10"/>
  <rect x="510" y="470" width="340" height="60" rx="30" fill="#fff" stroke="#000" stroke-width="8"/>
  <rect x="510" y="470" width="230" height="60" rx="30" fill="#0066b3"/>
  <text x="500" y="900" font-family="sans-serif" font-size="90" text-anchor="middle" fill="#000">x / |x|max</text>
</svg>
